inDegrees=no
num_controls=7
num_derivatives=13
num_iterations=92
num_multipliers=7
num_parameters=0
num_slacks=7
num_states=26
objective=0.425677
objective_accelerations=0.058780
objective_balance=0.001303
objective_effort=0.014636
objective_height=0.345008
objective_ligament=0.005949
solver_duration=1424.577738
status=Solve_Succeeded
success=true
DataType=double
version=3
OpenSimVersion=4.5
endheader
time	/jointset/ground_pelvis/pelvis_tilt/value	/jointset/ground_pelvis/pelvis_tx/value	/jointset/ground_pelvis/pelvis_ty/value	/jointset/hip_l/hip_flexion_l/value	/jointset/hip_l/hip_adduction_l/value	/jointset/hip_l/hip_rotation_l/value	/jointset/back/lumbar_extension/value	/jointset/patellofemoral_l/patellar_flexion_l/value	/jointset/knee_l/knee_flexion_l/value	/jointset/knee_l/knee_adduction_l/value	/jointset/knee_l/knee_rotation_l/value	/jointset/ankle_l/ankle_angle_l/value	/jointset/subtalar_l/subtalar_angle_l/value	/jointset/ground_pelvis/pelvis_tilt/speed	/jointset/ground_pelvis/pelvis_tx/speed	/jointset/ground_pelvis/pelvis_ty/speed	/jointset/hip_l/hip_flexion_l/speed	/jointset/hip_l/hip_adduction_l/speed	/jointset/hip_l/hip_rotation_l/speed	/jointset/back/lumbar_extension/speed	/jointset/patellofemoral_l/patellar_flexion_l/speed	/jointset/knee_l/knee_flexion_l/speed	/jointset/knee_l/knee_adduction_l/speed	/jointset/knee_l/knee_rotation_l/speed	/jointset/ankle_l/ankle_angle_l/speed	/jointset/subtalar_l/subtalar_angle_l/speed	/forceset/tau_hip_flexion_l	/forceset/tau_hip_adduction_l	/forceset/tau_hip_rotation_l	/forceset/tau_knee_flexion_l	/forceset/tau_ankle_angle_l	/forceset/tau_subtalar_angle_l	/forceset/tau_lumbar_extension	lambda_cid13_p0	lambda_cid13_p1	lambda_cid13_p2	lambda_cid13_p3	lambda_cid13_p4	lambda_cid13_p5	lambda_cid14_p0	/jointset/ground_pelvis/pelvis_tilt/accel	/jointset/ground_pelvis/pelvis_tx/accel	/jointset/ground_pelvis/pelvis_ty/accel	/jointset/hip_l/hip_flexion_l/accel	/jointset/hip_l/hip_adduction_l/accel	/jointset/hip_l/hip_rotation_l/accel	/jointset/back/lumbar_extension/accel	/jointset/patellofemoral_l/patellar_flexion_l/accel	/jointset/knee_l/knee_flexion_l/accel	/jointset/knee_l/knee_adduction_l/accel	/jointset/knee_l/knee_rotation_l/accel	/jointset/ankle_l/ankle_angle_l/accel	/jointset/subtalar_l/subtalar_angle_l/accel	gamma_cid13_p0	gamma_cid13_p1	gamma_cid13_p2	gamma_cid13_p3	gamma_cid13_p4	gamma_cid13_p5	gamma_cid14_p0
0.5	-0.2048445109367162	0.02953103157446694	0.770390206093118	0.9882534122441916	-0.361417842986336	-0.003577607861240688	-0.4003178378474963	0.9709746064369429	0.9709746064368709	-0.02551223306345888	-0.1745273535327809	0.3174021928416103	0.1678808770035535	-0.717736100298852	-0.1718514506158051	-0.5341752031323718	2.38604298132235	0.04024395558604855	0.5297443365612984	-0.3078943563910418	2.032743669095338	2.032743669095286	0.3296080955234264	2.711112577077523e-05	0.5328747008236659	0.281626540020686	-0.0957297102467462	0.02170349698696656	-0.002219436105305855	-0.2114615336648232	0.01216510031804676	0.02078149151217616	0.1114407768027644	-19.82213988636805	-4.353742665330171	-0.9586737500530543	-2.597169556061205	-438.5901329427875	-71.73692224560624	-4.480189505094723	0.2863912846102832	0.4405386645078292	-0.4972757007271791	-1.143742870378753	0.0828424637705524	-0.7854524744844302	1.3694349419354	-1.556880054149581	-1.556880054149538	-0.1831586520010593	-0.01244830615407982	-0.854561580396182	0.08308216393831701	-4.97102342714793e-07	2.360955416127918e-07	7.122977222838375e-06	4.612632070800205e-07	-1.376856272859068e-06	-8.524670955717126e-07	-8.350863082624368e-07
0.51	-0.2120055299177722	0.02783482138501144	0.7650249343700694	1.012051758316312	-0.3610139316282341	0.001687551359718238	-0.4033292009009634	0.991220529739124	0.9912205297392491	-0.02223596375935217	-0.1745271087236533	0.3226865011148788	0.1706966478902804	-0.7143648026628823	-0.1673709758403799	-0.5387548559960638	2.373302938750014	0.04053739285939337	0.5232459108541142	-0.2943577744444776	2.016152030412776	2.016152030412814	0.3256352444514031	5.31050640534435e-06	0.5239075183387865	0.2814777401772269	-0.1002741019390723	0.02257535351594317	-0.002643517197589614	-0.2141274748162076	0.01065872198640038	0.02123060034344227	0.1149404654386853	-20.46684895484501	-4.330786602248171	-1.082407952167998	-2.426954615638549	-441.9342181919996	-71.9450088920801	-3.872049526329063	0.3779080908248671	0.4548405164228801	-0.4199363337744819	-1.387683023876652	0.001338644602653154	-0.5890777357385758	1.348841799696413	-1.753485503627041	-1.753485503613455	-0.505812366001723	0.001837486872846948	-0.9297056566540706	-0.07226146499194304	-4.731956439560876e-07	6.071214791158445e-07	7.045387956101013e-06	5.037405788164944e-07	-1.311175590822361e-06	-4.29448214066886e-07	-8.05330033032573e-07
0.52	-0.2191297541049214	0.02618402366978278	0.759617540867467	1.035712994348067	-0.3606073370403017	0.006886318300224884	-0.4062045837392289	1.011291900708816	1.011291900709139	-0.01899971577220636	-0.1745273052353773	0.3278787557484746	0.1735092506972719	-0.7103771415175314	-0.1627689557704342	-0.5425995590431302	2.358620973249053	0.04078060155218603	0.5164658804708033	-0.280698313350734	1.997833202597513	1.997833202597642	0.3216038321314295	-6.115304493515174e-05	0.5144639728890974	0.2809929240736111	-0.1048184936313968	0.02344721004492143	-0.003067598289878296	-0.2167934159675918	0.009152343654754317	0.02167970917471092	0.1184401540746078	-21.10574961990221	-4.316568395431021	-1.195926251405593	-2.304965761366292	-445.1925452668572	-72.26854194746768	-3.314268338474728	0.4096639864865119	0.4648477234119258	-0.3502857374020379	-1.532127456103781	0.07279674766011515	-0.8417734097097813	1.394010771371272	-1.902317880689649	-1.902317880689709	-0.1948709015911208	-0.02138089254910105	-0.9498341733581002	0.01587891190696472	-4.471916840486954e-07	9.610707109270897e-07	6.920865666354754e-06	5.424414603205395e-07	-1.242060879027194e-06	-8.582164752324926e-09	-7.715397977613012e-07
0.53	-0.2262111114260293	0.0245797984673173	0.7541754300265437	1.05921790788656	-0.360198264180383	0.01201664897164745	-0.4089426262042943	1.031171683070636	1.031171683070786	-0.01580425729932124	-0.1745278029505765	0.3329743771265707	0.1763156997835021	-0.7057898595421916	-0.1580614008995356	-0.5456914449279601	2.342033560417375	0.04103033555196028	0.5095836887800225	-0.2668877124317222	1.977838472698592	1.977838472698464	0.3174489592763052	-4.446220399623795e-05	0.5045860848452142	0.2802406794217913	-0.1095436749888057	0.02471859258205853	-0.00333880398418946	-0.2195060766921497	0.007550974208735401	0.02160209731638427	0.122052438144305	-21.84758062596095	-4.005193126592597	-1.414369193024543	-2.03456639442713	-448.7249109139449	-72.04276949127392	-2.805637716509665	0.4989121377154143	0.4760244962416719	-0.2692065336279018	-1.771319634620384	-0.0005994824164046609	-0.6146355244019206	1.37795483675572	-2.09061934639058	-2.090619346429066	-0.5314656412493142	0.01363453831878164	-1.017862913925214	-0.1302074698467723	-3.94781984263005e-07	9.193380136463118e-07	6.211155107833568e-06	4.920358685860137e-07	-1.09592257358802e-06	1.717411769907298e-07	-6.963230513808404e-07
0.54	-0.2332434655604521	0.02302311183902337	0.7487062870228512	1.082547093009152	-0.359787026222177	0.01707751903103421	-0.4115418886432515	1.050843004373087	1.050843004373062	-0.01265148158774172	-0.1745280456641845	0.3379690002654236	0.1791127401599901	-0.7005765041805435	-0.1532612409361229	-0.5480059915969704	2.323475290068873	0.04121362120963514	0.502573758063654	-0.2529423081291272	1.956140990723784	1.956140990723399	0.3130672798701317	-1.015272692133651e-05	0.4942643250404599	0.2791111821251587	-0.1142688563462132	0.02598997511919545	-0.00361000967848697	-0.2222187374167073	0.005949604762716203	0.02152448545805704	0.1256647222140037	-22.58651863799873	-3.698872434189944	-1.626807724140543	-1.804139034722388	-452.1880820630541	-71.91978822891039	-2.344786823750184	0.534878663748221	0.4833687419147592	-0.1948178942381543	-1.926298959468616	0.05950707924023581	-0.8673212148272869	1.420971448087908	-2.242868295866805	-2.242868295866929	-0.2402322118009554	-0.01785716532190764	-1.03860852553232	-0.05957161705560222	-3.131574233353673e-07	4.398295650296735e-07	4.85400220939118e-06	3.430443915662592e-07	-8.645666751810095e-07	8.593216142062542e-08	-5.752727182412762e-07
0.55	-0.2402209125412461	0.02151488803522147	0.7432178951809427	1.105681313570226	-0.3593736856983635	0.02206502676981727	-0.41400093044953	1.070289142190516	1.070289142190567	-0.009540528549145758	-0.1745286944278052	0.3428585841177942	0.1818975838285238	-0.6948205938969827	-0.1483665173880163	-0.5495374502364286	2.303043793737778	0.04143821384508414	0.4950063008951748	-0.2388596211946071	1.932814041806161	1.932814041805904	0.3089874570741829	-8.415807170462426e-05	0.4835947597529826	0.2777857185350665	-0.1187027886358088	0.02639237049660061	-0.003703780035588081	-0.2256011372731653	0.004935567004522101	0.02168653518495901	0.1290588266896307	-23.12185820036773	-3.539482144916807	-1.80760363290867	-1.740263002698032	-455.7867959915087	-72.26882964556252	-1.930254517354681	0.6097761305214104	0.4951268819588435	-0.1122185410637104	-2.150361026981352	0.0008648177320302356	-0.6901517697337081	1.402882105922033	-2.418385984054342	-2.418385984035161	-0.5122354839790298	0.003943514433705807	-1.089788230780301	-0.1803278105767147	-2.168697690277281e-07	-3.825217314514675e-07	3.052357485780854e-06	1.220351319444589e-07	-5.91800551887292e-07	-3.035625165624424e-07	-4.203757932507402e-07
0.5600000000000001	-0.2471380346352321	0.02005613201104068	0.7377182070141869	1.12860146195658	-0.3589587133557886	0.02697912117654086	-0.4163189524285055	1.089493854959901	1.089493854960028	-0.006474449372608925	-0.1745288600981749	0.3476397407772052	0.1846669140450385	-0.688511526818967	-0.1433676850119008	-0.5502652565664501	2.280660855124626	0.04153998496192447	0.4878910916516775	-0.2247383426685677	1.907855981114766	1.907855981114637	0.304092507458747	8.646592312191267e-05	0.4725788864485107	0.2760084917213469	-0.123136720925403	0.02679476587400817	-0.003797550392723585	-0.2289835371296236	0.003921529246328792	0.02184858491186538	0.1324529311652591	-23.65544230653438	-3.386034432879187	-1.981013916398152	-1.707144608592436	-459.3508539049163	-72.69416774839299	-1.560309514211925	0.6455100226391969	0.5041905075165405	-0.03408743235080002	-2.316587415879997	0.03494277551849803	-0.7768716298308953	1.428689766391777	-2.569090650621152	-2.569090650621163	-0.4032575756983772	0.0310687026000565	-1.107870128931231	-0.149924261781048	-1.029864026640878e-07	-1.616284445369998e-06	7.173225719690223e-07	-1.853954667997934e-07	-2.69342158729528e-07	-1.057479989441055e-06	-2.248629580390393e-07
